<svg width="38" height="38" viewBox="0 0 38 38" fill="none" xmlns="http://www.w3.org/2000/svg">
<path d="M17.4167 17.4165V11.0832H20.5833V17.4165H26.9167V20.5832H20.5833V26.9165H17.4167V20.5832H11.0833V17.4165H17.4167ZM19 34.8332C10.2552 34.8332 3.16666 27.7446 3.16666 18.9998C3.16666 10.2551 10.2552 3.1665 19 3.1665C27.7447 3.1665 34.8333 10.2551 34.8333 18.9998C34.8333 27.7446 27.7447 34.8332 19 34.8332ZM19 31.6665C22.3594 31.6665 25.5812 30.332 27.9567 27.9565C30.3321 25.5811 31.6667 22.3592 31.6667 18.9998C31.6667 15.6404 30.3321 12.4186 27.9567 10.0432C25.5812 7.66769 22.3594 6.33317 19 6.33317C15.6406 6.33317 12.4188 7.66769 10.0433 10.0432C7.66784 12.4186 6.33332 15.6404 6.33332 18.9998C6.33332 22.3592 7.66784 25.5811 10.0433 27.9565C12.4188 30.332 15.6406 31.6665 19 31.6665V31.6665Z" fill="#F1F2F6"/>
</svg>
